<?xml version="1.0" encoding="UTF-8" standalone="no"?>
<!-- Created with Inkscape (http://www.inkscape.org/) -->

<svg
   xmlns:dc="http://purl.org/dc/elements/1.1/"
   xmlns:cc="http://creativecommons.org/ns#"
   xmlns:rdf="http://www.w3.org/1999/02/22-rdf-syntax-ns#"
   xmlns:svg="http://www.w3.org/2000/svg"
   xmlns="http://www.w3.org/2000/svg"
   xmlns:sodipodi="http://sodipodi.sourceforge.net/DTD/sodipodi-0.dtd"
   xmlns:inkscape="http://www.inkscape.org/namespaces/inkscape"
   width="225mm"
   height="225mm"
   viewBox="0 0 225 225"
   version="1.1"
   id="svg8"
   inkscape:version="0.92.4 (5da689c313, 2019-01-14)"
   sodipodi:docname="Trill.svg">
  <defs
     id="defs2" />
  <sodipodi:namedview
     id="base"
     pagecolor="#ffffff"
     bordercolor="#666666"
     borderopacity="1.0"
     inkscape:pageopacity="0.0"
     inkscape:pageshadow="2"
     inkscape:zoom="0.7"
     inkscape:cx="222.50289"
     inkscape:cy="338.91449"
     inkscape:document-units="mm"
     inkscape:current-layer="layer1"
     showgrid="false"
     inkscape:window-width="1920"
     inkscape:window-height="1058"
     inkscape:window-x="-8"
     inkscape:window-y="-8"
     inkscape:window-maximized="1" />
  <metadata
     id="metadata5">
    <rdf:RDF>
      <cc:Work
         rdf:about="">
        <dc:format>image/svg+xml</dc:format>
        <dc:type
           rdf:resource="http://purl.org/dc/dcmitype/StillImage" />
        <dc:title></dc:title>
      </cc:Work>
    </rdf:RDF>
  </metadata>
  <g
     inkscape:label="Ebene 1"
     inkscape:groupmode="layer"
     id="layer1"
     transform="translate(0,-72)">
    <g
       id="g826"
       transform="translate(0.52916873)">
      <path
         style="fill:#fefefe;stroke-width:1"
         d="M -0.28261742,185.04345 V 72.501915 H 112.25892 224.80046 V 185.04345 297.58499 H 112.25892 -0.28261742 Z"
         id="path842"
         inkscape:connector-curvature="0" />
      <path
         style="fill:#fed3e5;stroke-width:1"
         d="M 34.495845,200.47884 V 132.87576 H 18.374916 2.253988 l 0.050543,-10.50192 0.050543,-10.50192 46.648077,-0.0493 46.648078,-0.0493 v 10.55117 10.55117 H 79.043538 62.435845 v 67.60308 67.60308 h -13.97 -13.97 z m 32.824615,2.14923 V 137.17422 H 98.19123 129.062 v 10.2577 10.25769 H 112.35661 95.65123 v 55.19615 55.19616 H 81.485845 67.32046 Z m 33.41077,12.40692 v -53.04692 h 13.87231 13.87231 v 53.04692 53.04693 h -13.87231 -13.87231 z m 32.04308,-14.555 v -67.60192 l -15.77731,-0.05 -15.77731,-0.05 v -10.45308 -10.45307 l 29.74731,-0.0495 29.74731,-0.0495 v 78.15448 78.15447 h -13.97 -13.97 z m 32.82461,-10.55192 v -78.15385 h 28.33077 28.33077 v 10.55077 10.55077 h -14.06769 -14.06769 v 67.60308 67.60308 H 179.862 165.59892 Z"
         id="path840"
         inkscape:connector-curvature="0" />
      <path
         style="fill:#feb1d2;stroke-width:1"
         d="M 34.495845,200.47884 V 132.87576 H 18.474306 2.4527672 V 122.32499 111.77422 H 49.051999 95.65123 v 10.55077 10.55077 H 79.043538 62.435845 v 67.60308 67.60308 h -13.97 -13.97 z m 32.824615,2.14923 v -65.45385 h 30.872513 30.872517 l -0.0506,10.20885 -0.0506,10.20885 -16.65654,0.0499 -16.65654,0.0499 v 55.19506 55.19506 H 81.485845 67.32046 Z m 33.41077,12.40692 v -53.04692 h 13.87231 13.87231 v 53.04692 53.04693 h -13.87231 -13.87231 z m 32.23846,-14.55615 v -67.60308 h -15.82615 -15.82616 v -10.5514 -10.55139 l 29.64962,0.0495 29.64962,0.0495 0.0491,78.105 0.0491,78.105 h -13.87255 -13.87255 z m 32.67784,-10.50192 0.0491,-78.105 h 28.23307 28.23308 l 0.0506,10.50192 0.0505,10.50192 H 208.0968 193.92971 v 67.60308 67.60308 h -14.16562 -14.16563 z"
         id="path838"
         inkscape:connector-curvature="0" />
      <path
         style="fill:#fe9cc6;stroke-width:1"
         d="m 34.626102,267.95165 c -0.07164,-0.0716 -0.130257,-30.49301 -0.130257,-67.60307 V 132.87576 H 18.474306 2.4527672 V 122.42268 111.96961 H 49.051999 95.65123 v 10.45307 10.45308 H 78.945845 62.24046 v 67.60308 67.60308 H 48.49841 c -7.55813,0 -13.800669,-0.0586 -13.872308,-0.13027 z m 32.742915,-65.27473 0.04914,-65.405 h 30.773077 30.773076 v 10.16 10.16 l -16.65654,0.0499 -16.656536,0.0499 v 55.19506 55.19506 H 81.485556 67.319884 Z m 33.362213,12.35807 v -53.04692 h 13.87231 13.87231 v 53.04692 53.04693 h -13.87231 -13.87231 z m 32.23846,-14.55615 v -67.60308 h -15.82615 -15.82616 v -10.45308 -10.45307 h 29.69847 29.69846 v 78.05615 78.05616 H 146.842 132.96969 Z m 32.75949,67.47281 c -0.0716,-0.0716 -0.13026,-35.1969 -0.13026,-78.05614 v -77.9259 h 28.33248 28.33248 l -0.0505,10.40423 -0.0506,10.40423 -14.11654,0.0501 -14.11654,0.0501 v 67.6018 67.60179 h -14.03512 c -7.71933,0 -14.09375,-0.0586 -14.16539,-0.13027 z"
         id="path836"
         inkscape:connector-curvature="0" />
      <path
         style="fill:#fe8cbd;stroke-width:1"
         d="M 34.691229,200.47884 V 132.87576 H 18.571998 2.4527672 V 122.42268 111.96961 H 49.051999 95.65123 v 10.45307 10.45308 H 78.945845 62.24046 v 67.60308 67.60308 H 48.465845 34.691229 Z m 32.677788,2.19808 0.04914,-65.405 h 30.773077 30.773076 l 0.0506,10.11115 0.0506,10.11115 H 112.35837 95.65123 v 55.29385 55.29385 H 81.485556 67.319884 Z m 33.362213,12.35676 v -53.04823 l 13.82346,0.0502 13.82346,0.0502 0.0492,52.99808 0.0492,52.99808 h -13.87267 -13.87266 z m 32.23846,-14.55484 v -67.60308 h -15.82615 -15.82616 v -10.45308 -10.45307 h 29.69847 29.69846 v 78.05615 78.05616 H 146.842 132.96969 Z m 32.75949,67.47281 c -0.0716,-0.0716 -0.13026,-35.1969 -0.13026,-78.05614 v -77.9259 h 28.33248 28.33248 l -0.0505,10.40423 -0.0506,10.40423 -14.11654,0.0501 -14.11654,0.0501 v 67.6018 67.60179 h -14.03512 c -7.71933,0 -14.09375,-0.0586 -14.16539,-0.13027 z"
         id="path834"
         inkscape:connector-curvature="0" />
      <path
         style="fill:#fe62a5;stroke-width:1"
         d="m 34.642662,200.42999 -0.04913,-67.65192 -16.070385,-0.05 -16.0703848,-0.05 V 122.32386 111.96961 H 49.051999 95.65123 v 10.35428 10.35429 l -16.656539,0.0499 -16.656538,0.0499 -0.04913,67.65192 -0.04912,67.65193 H 48.465845 34.691788 Z m 32.808055,67.52166 c -0.07164,-0.0716 -0.130257,-29.4819 -0.130257,-65.35614 v -65.2259 H 98.19123 129.062 v 10.06231 10.0623 H 112.35661 95.65123 v 55.29385 55.29385 H 81.616102 c -7.719322,0 -14.093745,-0.0586 -14.165385,-0.13027 z m 33.280513,-52.91797 v -53.04823 l 13.82346,0.0502 13.82346,0.0502 0.0492,52.99808 0.0492,52.99808 h -13.87267 -13.87266 z m 32.1899,-14.60238 -0.0491,-67.65323 -15.77731,-0.05 -15.77731,-0.05 v -10.35423 -10.35423 h 29.69871 29.6987 l -0.0491,78.00731 -0.0491,78.00731 -13.82319,0.0501 -13.82318,0.0502 z m 32.87318,-10.40554 v -78.05615 h 28.23308 28.23307 v 10.3541 10.3541 l -14.11654,0.0501 -14.11653,0.0501 -0.0491,67.65192 -0.0491,67.65193 h -14.06741 -14.06741 z"
         id="path832"
         inkscape:connector-curvature="0" />
      <path
         style="fill:#fe338a;stroke-width:1"
         d="M 34.691229,200.38115 V 132.68038 H 18.571998 2.4527672 V 122.32499 111.96961 H 49.051999 95.65123 v 10.35538 10.35539 H 78.945845 62.24046 v 67.70077 67.70077 H 48.465845 34.691229 Z m 32.824616,2.34461 v -65.35615 h 30.675385 30.67539 v 10.06231 10.0623 h -16.6077 -16.60769 v 55.29385 55.29385 H 81.583538 67.515845 Z m 33.215385,12.40693 v -52.94924 h 13.77462 13.77461 v 52.94924 52.94923 h -13.77461 -13.77462 z m 32.23846,-14.75154 v -67.70077 h -15.82615 -15.82616 v -10.35539 -10.35538 h 29.60077 29.60077 v 78.05615 78.05616 h -13.77461 -13.77462 z m 32.82462,-10.35539 v -78.05615 h 28.23308 28.23307 v 10.35538 10.35539 h -14.16538 -14.16539 v 67.70077 67.70077 H 179.862 165.79431 Z"
         id="path830"
         inkscape:connector-curvature="0" />
      <path
         style="fill:#fe006d;stroke-width:1"
         d="M 34.691229,200.28346 V 132.68038 H 18.571998 2.4527672 V 122.32499 111.96961 H 49.051999 95.65123 v 10.35538 10.35539 H 78.945845 62.24046 v 67.60308 67.60307 H 48.465845 34.691229 Z m 32.824616,2.34461 v -65.25846 h 30.675385 30.67539 v 10.06231 10.0623 h -16.6077 -16.60769 v 55.19616 55.19615 H 81.583538 67.515845 Z m 33.215385,12.40692 v -52.85154 h 13.77462 13.77461 v 52.85154 52.85154 h -13.77461 -13.77462 z m 32.23846,-14.75153 v -67.60308 h -15.82615 -15.82616 v -10.35539 -10.35538 h 29.60077 29.60077 v 77.95846 77.95846 h -13.77461 -13.77462 z m 32.82462,-10.35539 v -77.95846 h 28.13538 28.13539 v 10.35538 10.35539 h -14.06769 -14.0677 v 67.60308 67.60307 H 179.862 165.79431 Z"
         id="path828"
         inkscape:connector-curvature="0" />
    </g>
  </g>
</svg>
